<svg xmlns="http://www.w3.org/2000/svg" xmlns:xlink="http://www.w3.org/1999/xlink" width="30" height="30" viewBox="0 0 30 30"><defs><path id="c9mha" d="M363 1856a15 15 0 1 1-30 0 15 15 0 0 1 30 0zm-1.31.64h-2.65a.64.64 0 0 1 0-1.28h2.64a13.7 13.7 0 0 0-13.04-13.04v2.64a.64.64 0 0 1-1.28 0v-2.64a13.7 13.7 0 0 0-13.04 13.04h2.64a.64.64 0 0 1 0 1.28h-2.64a13.7 13.7 0 0 0 13.04 13.04v-2.64a.64.64 0 1 1 1.28 0v2.64a13.7 13.7 0 0 0 13.05-13.04zm-6.91 6.25a.64.64 0 0 1-.91 0l-6.33-6.44a.64.64 0 0 1-.18-.45v-6.76a.64.64 0 1 1 1.28 0v6.5l6.15 6.24c.25.26.24.67-.01.91z"/></defs><g><g transform="translate(-333 -1841)"><use xlink:href="#c9mha"/></g></g></svg>