<svg xmlns="http://www.w3.org/2000/svg" xmlns:xlink="http://www.w3.org/1999/xlink" width="29" height="30" viewBox="0 0 29 30"><defs><path id="llrka" d="M361.7 1824.06a5.58 5.58 0 0 1-4.25 1.94h-17.9c-1.64 0-3.2-.7-4.25-1.94a5.35 5.35 0 0 1-1.21-4.45l2.26-12.58a5.51 5.51 0 0 1 5.47-4.49h3.21a4.07 4.07 0 0 1-.77-2.38 4.2 4.2 0 0 1 4.24-4.16 4.2 4.2 0 0 1 4.24 4.16c0 .88-.28 1.7-.77 2.38h3.21c2.7 0 5 1.9 5.47 4.5l2.27 12.57a5.35 5.35 0 0 1-1.22 4.45zm-15.63-23.9c0 1.31 1.09 2.38 2.43 2.38a2.41 2.41 0 0 0 2.44-2.38c0-1.32-1.1-2.39-2.44-2.39a2.41 2.41 0 0 0-2.43 2.39zm15.07 19.76l-2.27-12.58a3.72 3.72 0 0 0-3.69-3.03h-13.36a3.72 3.72 0 0 0-3.69 3.03l-2.26 12.58a3.6 3.6 0 0 0 .82 3 3.77 3.77 0 0 0 2.86 1.3h17.9c1.1 0 2.15-.47 2.87-1.3a3.6 3.6 0 0 0 .82-3zm-13.35-3.36c.35.36.34.92-.02 1.26a.91.91 0 0 1-1.28-.02l-2.53-2.57v1.95a.9.9 0 0 1-.9.88.9.9 0 0 1-.9-.88v-5.82c0-.49.4-.88.9-.88s.9.4.9.88v1.95l2.53-2.56a.92.92 0 0 1 1.28-.02c.36.34.37.9.02 1.25l-2.26 2.29zm7.06-2.04v.71c0 1.56-1.3 2.84-2.9 2.84-1.6 0-2.89-1.28-2.89-2.84v-1.92c0-1.56 1.3-2.83 2.9-2.83.9 0 1.72.4 2.28 1.09.3.38.23.94-.16 1.24-.4.3-.96.23-1.27-.15-.2-.26-.52-.41-.86-.41-.6 0-1.08.47-1.08 1.06v1.92c0 .59.49 1.06 1.08 1.06.54 0 .99-.38 1.08-.88h-.44a.9.9 0 0 1-.9-.89c0-.49.4-.88.9-.88h1.35c.5 0 .9.4.9.88z"/></defs><g><g transform="translate(-334 -1796)"><use xlink:href="#llrka"/></g></g></svg>