<svg xmlns="http://www.w3.org/2000/svg" xmlns:xlink="http://www.w3.org/1999/xlink" width="49" height="49" viewBox="0 0 49 49"><defs><path id="fnlza" d="M1148.29 2866.58h-17.57a.78.78 0 1 1 0-1.56h17.57a.78.78 0 1 1 0 1.56zm-27.95 11.32a.78.78 0 0 1 .46-.82l5.43-2.36.66-10.2a2.85 2.85 0 0 1 2.8-2.62h4.91v-6.3c0-.29.17-.55.43-.69.08-.03 1.85-.91 4.47-.91 2.63 0 4.4.88 4.48.91.26.14.43.4.43.7v6.3h4.9a2.85 2.85 0 0 1 2.81 2.61l.66 10.2 5.42 2.36c.33.14.51.47.46.82l-2.11 14.82a.78.78 0 0 1-1.55-.22l2.03-14.24-5.31-2.3-.02-.02-11.41-4.97v21.7c0 .43-.35.78-.79.78a.78.78 0 0 1-.78-.78v-21.7l-16.74 7.3 2.03 14.23a.78.78 0 0 1-.78.89.78.78 0 0 1-.77-.67zm15.83-21.77v5.77h6.67v-5.77a9.9 9.9 0 0 0-6.67 0zm-8.33 17.88l11.35-4.94.07-.03a.78.78 0 0 1 .48 0 .9.9 0 0 1 .08.03l11.35 4.94-.6-9.39a1.28 1.28 0 0 0-1.25-1.16h-19.63c-.63 0-1.2.53-1.24 1.16zm-12.84 21.77c0-.43.35-.78.78-.78a4.1 4.1 0 0 0 3.33-1.67.78.78 0 0 1 1.26 0 4.16 4.16 0 0 0 3.32 1.67c1.3 0 2.55-.62 3.33-1.67a.78.78 0 0 1 1.26 0 4.15 4.15 0 0 0 6.65 0 .78.78 0 0 1 1.25 0 4.15 4.15 0 0 0 6.65 0 .78.78 0 0 1 1.26 0 4.1 4.1 0 0 0 3.32 1.67c1.3 0 2.55-.62 3.33-1.67a.78.78 0 0 1 1.25 0 4.15 4.15 0 0 0 6.65 0 .79.79 0 0 1 1.26 0 4.1 4.1 0 0 0 3.33 1.67.78.78 0 1 1 0 1.56c-1.48 0-2.9-.58-3.96-1.6a5.72 5.72 0 0 1-7.9 0 5.73 5.73 0 0 1-7.91 0 5.73 5.73 0 0 1-7.9 0 5.72 5.72 0 0 1-7.9 0 5.74 5.74 0 0 1-7.92 0 5.74 5.74 0 0 1-3.96 1.6.78.78 0 0 1-.78-.78zm49 6.23c0 .43-.34.78-.77.78-1.48 0-2.9-.58-3.96-1.6a5.72 5.72 0 0 1-7.9 0 5.73 5.73 0 0 1-7.91 0 5.73 5.73 0 0 1-7.9 0 5.65 5.65 0 0 1-7.91 0 5.74 5.74 0 0 1-7.91 0 5.73 5.73 0 0 1-3.96 1.6.78.78 0 1 1 0-1.56 4.1 4.1 0 0 0 3.33-1.68.78.78 0 0 1 1.26 0 4.16 4.16 0 0 0 3.32 1.68c1.3 0 2.55-.62 3.33-1.68a.78.78 0 0 1 1.26 0 4.15 4.15 0 0 0 6.65 0 .78.78 0 0 1 1.25 0 4.15 4.15 0 0 0 6.65 0 .78.78 0 0 1 1.26 0 4.1 4.1 0 0 0 6.65 0 .78.78 0 0 1 1.25 0 4.15 4.15 0 0 0 6.65 0 .78.78 0 0 1 1.26 0 4.1 4.1 0 0 0 3.33 1.68c.43 0 .78.35.78.78z"/></defs><g><g transform="translate(-1115 -2854)"><use xlink:href="#fnlza"/></g></g></svg>