<svg xmlns="http://www.w3.org/2000/svg" xmlns:xlink="http://www.w3.org/1999/xlink" width="86" height="49" viewBox="0 0 86 49"><defs><path id="7y3za" d="M1004.92 2887.13c.04.06.06.12.08.19v.47a.83.83 0 0 1-.06.14l-1.55 2.92c-.98 1.84-4 3.34-6.73 3.34h-6.99l.54.88a5.2 5.2 0 0 1-4.45 7.92 5.22 5.22 0 0 1-4.45-7.92l.54-.88h-9.19l-.17.27c-2.38 3.8-6.29 6.07-10.47 6.07-4.17 0-8.08-2.27-10.46-6.07l-.17-.27h-9.19l.54.88a5.2 5.2 0 0 1-4.45 7.92 5.22 5.22 0 0 1-4.45-7.92l.54-.88h-7c-2.72 0-5.74-1.5-6.72-3.34l-1.55-2.92a.82.82 0 0 1 .71-1.2h24.8a.81.81 0 0 1 0 1.63h-23.45l.92 1.72c.7 1.32 3.18 2.48 5.3 2.48h23.15l-.29-.78a15.07 15.07 0 0 1 .84-12.27l.47-.86H937.9a.81.81 0 0 1 0-1.62h14.89l.17-.2c1.42-1.59 3.18-2.8 5.09-3.5l.38-.13v-14.44c0-2 1.25-3.8 3.26-4.7.21-.1.46-.1.67 0 2 .9 3.26 2.7 3.26 4.7v14.44l.38.14c1.91.7 3.67 1.9 5.09 3.5l.17.19h14.89a.81.81 0 0 1 0 1.62h-13.66l.46.86a14.97 14.97 0 0 1 .85 12.27l-.3.78h23.16c2.12 0 4.6-1.15 5.3-2.48l.92-1.72h-23.41a.81.81 0 0 1 0-1.62h24.76c.28 0 .55.15.7.4zm-63.05 10.65a3.6 3.6 0 1 0-7.18 0 3.6 3.6 0 0 0 7.18 0zm18.18-25l.65-.07c.88-.1 1.77-.1 2.65 0l.65.07v-14.02c0-1.12-.6-2.16-1.65-2.86l-.33-.21-.32.21a3.45 3.45 0 0 0-1.65 2.86zm13.04 13.8c0-6.8-4.96-12.33-11.07-12.33-6.1 0-11.06 5.53-11.06 12.33s4.96 12.33 11.06 12.33c6.1 0 11.07-5.53 11.07-12.33zm16.26 11.2a3.6 3.6 0 1 0-7.18 0 3.6 3.6 0 0 0 7.18 0zm-21.9-15.9a.81.81 0 0 1 0 1.63H956.6a.81.81 0 0 1 0-1.62z"/></defs><g><g transform="translate(-919 -2854)"><use xlink:href="#7y3za"/></g></g></svg>