<svg xmlns="http://www.w3.org/2000/svg" xmlns:xlink="http://www.w3.org/1999/xlink" width="47" height="60" viewBox="0 0 47 60"><defs><path id="z8dqa" d="M617.25 2885.8v-1.97a.63.63 0 0 0-.62-.63h-42.26a.63.63 0 0 0-.62.63v20.78c0 .35.28.63.62.63h42.26c.34 0 .62-.28.62-.63v-15.65a.88.88 0 1 1 1.74 0v15.65a2.38 2.38 0 0 1-2.36 2.39h-42.26a2.38 2.38 0 0 1-2.37-2.39v-20.78a2.38 2.38 0 0 1 2.37-2.39h6.17c.05-.07 12.15-12.25 12.21-12.31a3.04 3.04 0 0 1 .4-3.16 4.57 4.57 0 0 1-2.18-3.9c0-.48.4-.87.87-.87.49 0 .88.4.88.88a2.8 2.8 0 0 0 2.42 2.78c.25-.03.47-.03.72 0a2.8 2.8 0 0 0-.36-5.59.88.88 0 0 1-.87-.88v-2.64h-1.32a2.38 2.38 0 0 1-2.37-2.4v-3.96a2.38 2.38 0 0 1 2.37-2.39h4.38c1.3 0 2.37 1.07 2.37 2.39v3.97a2.38 2.38 0 0 1-2.37 2.39h-1.32v1.85c4.04.8 5 6.2 1.48 8.37.72.9.87 2.12.4 3.16 12.84 12.93 12.12 12.19 12.2 12.31h6.18c1.3 0 2.37 1.07 2.37 2.4v1.96c0 .48-.4.88-.87.88a.88.88 0 0 1-.88-.88zm-23.94-31.81h4.38c.34 0 .63-.28.63-.63v-3.97a.63.63 0 0 0-.63-.63h-4.38a.63.63 0 0 0-.63.63v3.97c0 .35.29.63.63.63zm.92 13.88c0 .7.57 1.28 1.27 1.28a1.28 1.28 0 0 0 .3-2.52h-.6c-.55.13-.97.64-.97 1.24zm13.77 13.57l-10.9-10.99c-.98.61-2.22.61-3.2 0l-10.9 11zm-29.22 5.12v15.85c0 .48-.39.87-.87.87a.88.88 0 0 1-.87-.87v-15.85c0-.49.39-.88.87-.88s.87.4.87.88zm5.03 0v15.85c0 .48-.4.87-.87.87a.88.88 0 0 1-.88-.87v-15.85a.88.88 0 1 1 1.74 0zm5.02 0v15.85c0 .48-.39.87-.87.87a.88.88 0 0 1-.87-.87v-15.85c0-.49.39-.88.87-.88s.87.4.87.88zm5.03 0v15.85c0 .48-.4.87-.87.87a.88.88 0 0 1-.88-.87v-15.85a.88.88 0 1 1 1.74 0zm5.02 0v15.85c0 .48-.39.87-.87.87a.88.88 0 0 1-.87-.87v-15.85c0-.49.4-.88.87-.88.48 0 .88.4.88.88zm5.03 0v15.85c0 .48-.39.87-.87.87a.88.88 0 0 1-.87-.87v-15.85c0-.49.39-.88.87-.88s.87.4.87.88zm5.03 0v15.85a.88.88 0 1 1-1.75 0v-15.85c0-.49.4-.88.87-.88.49 0 .88.4.88.88zm5.02 0v15.85c0 .48-.39.87-.87.87a.88.88 0 0 1-.87-.87v-15.85c0-.49.39-.88.87-.88s.87.4.87.88z"/></defs><g><g transform="translate(-572 -2847)"><use xlink:href="#z8dqa"/></g></g></svg>