<svg xmlns="http://www.w3.org/2000/svg" xmlns:xlink="http://www.w3.org/1999/xlink" width="37" height="50" viewBox="0 0 37 50"><defs><path id="455da" d="M1493.72 2858.52c0-.44.36-.8.8-.8h12.91c.45 0 .8.36.8.8a.8.8 0 0 1-.8.8h-12.9a.8.8 0 0 1-.81-.8zm-2.64 25.19c0 1.32-1.08 2.4-2.42 2.4a2.41 2.41 0 0 1-2.42-2.4c0-1.32 1.09-2.4 2.42-2.4a2.4 2.4 0 0 1 2.42 2.4zm-1.61 0a.8.8 0 0 0-.8-.8.8.8 0 0 0-.81.8.8.8 0 1 0 1.61 0zm27.32 0c0 1.32-1.09 2.4-2.42 2.4a2.41 2.41 0 0 1-2.42-2.4c0-1.32 1.08-2.4 2.42-2.4a2.41 2.41 0 0 1 2.42 2.4zm-1.62 0a.8.8 0 0 0-.8-.8.8.8 0 0 0-.8.8.8.8 0 1 0 1.61 0zm4.84-24.72v29.5a.8.8 0 0 1-.8.8h-.27v5.4a2.95 2.95 0 0 1-2.96 2.93h-1.28l1.85 1.83 3.23 3.19c.23.23.3.57.17.87a.8.8 0 0 1-.74.49h-35.39a.8.8 0 0 1-.74-.5.8.8 0 0 1 .17-.86l3.23-3.2 1.85-1.82h-1.28a2.95 2.95 0 0 1-2.96-2.93v-5.4h-.27a.8.8 0 0 1-.8-.8V2859a5.02 5.02 0 0 1 5.04-5h26.91a5.02 5.02 0 0 1 5.04 5zm-35.38 0v2.46h33.77v-2.46c0-1.87-1.54-3.4-3.43-3.4h-26.91a3.42 3.42 0 0 0-3.43 3.4zm33.77 28.7v-24.64h-16.08v14.9h13.66c.45 0 .8.36.8.8a.8.8 0 0 1-.8.8h-28.93a.8.8 0 0 1-.8-.8c0-.44.35-.8.8-.8h13.66v-14.9h-16.08v24.65zm-19.75 1.6v3.54h5.73v-3.54zm18.61 13.11l-1.61-1.6h-28.27l-1.61 1.6zm-4.84-4.78h-21.81l-1.61 1.6h25.03zm4.9-2.93v-5.4H1506v4.34a.8.8 0 0 1-.8.8h-7.35a.8.8 0 0 1-.8-.8v-4.34h-11.34v5.4c0 .73.6 1.33 1.35 1.33h28.93c.74 0 1.35-.6 1.35-1.33z"/></defs><g><g transform="translate(-1483 -2854)"><use xlink:href="#455da"/></g></g></svg>