<svg xmlns="http://www.w3.org/2000/svg" xmlns:xlink="http://www.w3.org/1999/xlink" width="49" height="53" viewBox="0 0 49 53"><defs><path id="uarda" d="M422.87 2883.57h-5.25a.88.88 0 0 1-.87-.89c0-.48.39-.88.87-.88h5.25c.48 0 .88.4.88.88 0 .5-.4.89-.88.89zm0-21.2h8.75c.48 0 .87.4.87.88v17.67c0 .48-.39.88-.87.88a.88.88 0 0 1-.87-.88v-16.79h-7.88a4.4 4.4 0 0 1-4.37-4.41v-4.42c0-.49.39-.88.87-.88s.88.4.88.88v4.42a2.64 2.64 0 0 0 2.62 2.65zm.88 9.71c0 .5-.4.89-.88.89h-7a.88.88 0 0 1-.87-.89c0-.48.39-.88.87-.88h7c.48 0 .88.4.88.88zm-11.38.89h-5.25a.88.88 0 0 1-.87-.89c0-.48.39-.88.87-.88h5.25c.49 0 .88.4.88.88 0 .5-.4.89-.88.89zm-5.25 3.53h1.75a.88.88 0 1 1 0 1.77h-1.75a.88.88 0 0 1-.87-.89c0-.48.39-.88.87-.88zm-.87-9.72c0-.48.39-.88.87-.88h8.75c.48 0 .88.4.88.88 0 .5-.4.89-.88.89h-8.75a.88.88 0 0 1-.87-.89zm5.25 10.6c0-.48.39-.88.87-.88h8.75c.48 0 .88.4.88.88 0 .5-.4.89-.88.89h-8.75a.88.88 0 0 1-.87-.89zm7.87 9.72a.88.88 0 1 1 0 1.77h-1.75a.88.88 0 0 1-.87-.89c0-.48.39-.88.87-.88zm-4.37-4.42c0 .5-.4.89-.88.89h-7a.88.88 0 0 1-.87-.89c0-.48.39-.88.87-.88h7c.48 0 .88.4.88.88zm0 5.3c0 .5-.4.89-.88.89h-7a.88.88 0 0 1-.87-.89c0-.48.39-.88.87-.88h7c.48 0 .88.4.88.88zm19.95 3.19l-11.46 11.57a.87.87 0 0 1-.62.26h-5.25a.88.88 0 0 1-.87-.88v-5.3c0-.24.09-.46.25-.63l11.47-11.57a3.27 3.27 0 0 1 4.73 0l1.75 1.77a3.26 3.26 0 0 1 0 4.78zm-15.22 4.76l1.4 1.4 7.6-7.67-1.4-1.4zm2.78 5.3l-4.01-4.05v4.05zm8.84-8.92l-1.4-1.4-7.6 7.67 1.4 1.4zm2.37-4.68l-1.75-1.76c-.7-.7-1.58-.7-2.27 0l-1.13 1.14 4.01 4.05 1.14-1.14c.7-.72.7-1.57 0-2.29zM415 2902.12c0 .48-.4.88-.88.88h-22.75a4.4 4.4 0 0 1-4.37-4.42v-44.16a4.4 4.4 0 0 1 4.37-4.42h28c.23 0 .46.1.62.26l8.75 8.83c.34.35.34.9 0 1.25a.87.87 0 0 1-1.24 0l-8.5-8.57h-27.63a2.64 2.64 0 0 0-2.62 2.65v44.16a2.64 2.64 0 0 0 2.62 2.65h22.75c.48 0 .88.4.88.89zm0-8.84c0 .5-.4.89-.88.89h-7a.88.88 0 0 1-.87-.89c0-.48.39-.88.87-.88h7c.48 0 .88.4.88.88zm-12.25-21.2c0 .5-.4.89-.88.89h-5.25a.88.88 0 0 1-.87-.89v-5.3c0-.48.4-.88.87-.88h5.25c.49 0 .88.4.88.88zm-1.75-4.41h-3.5v3.53h3.5zm-5.25 25.61v-5.3c0-.48.4-.88.87-.88h5.25c.49 0 .88.4.88.88v5.3c0 .5-.4.89-.88.89h-5.25a.88.88 0 0 1-.87-.89zm1.75-.88h3.5v-3.53h-3.5zm-1.5-10.86a.89.89 0 0 1 0-1.25.87.87 0 0 1 1.24 0l1 1 2.9-4.4a.87.87 0 0 1 1.22-.24c.4.27.5.82.24 1.22l-3.5 5.3a.87.87 0 0 1-1.34.14z"/></defs><g><g transform="translate(-387 -2850)"><use xlink:href="#uarda"/></g></g></svg>