<svg xmlns="http://www.w3.org/2000/svg" xmlns:xlink="http://www.w3.org/1999/xlink" width="49" height="50" viewBox="0 0 49 50"><defs><path id="s3k2a" d="M1307.62 2892h27.54a.78.78 0 0 1 0 1.57h-27.54a.78.78 0 0 1-.78-.79c0-.43.35-.78.78-.78zm-.78-6.24c0-.43.35-.79.78-.79h1.84c2.56 0 4.64 2.1 4.64 4.67 0 .43-.35.78-.78.78h-5.7a.78.78 0 0 1-.78-.78c0-.43.35-.79.78-.79h4.82a3.08 3.08 0 0 0-2.98-2.3h-1.84a.78.78 0 0 1-.78-.8zm21.83 3.88a4.66 4.66 0 0 1 4.64-4.67h1.85c.43 0 .78.36.78.79 0 .43-.35.79-.78.79h-1.85c-1.42 0-2.63.98-2.97 2.3h4.82c.43 0 .78.36.78.79 0 .43-.35.78-.78.78h-5.7a.78.78 0 0 1-.79-.78zm13.52-34.86v34.86c0 .43-.35.78-.78.78h-2.35v6.55c0 .43-.35.79-.78.79h-.43v4.68c0 .44-.35.79-.78.79h-6.69a.78.78 0 0 1-.78-.79v-2.33c0-.43.35-.78.78-.78.43 0 .78.35.78.78v1.55h5.12v-3.9h-29.96v3.9h5.12v-1.55c0-.43.35-.78.78-.78.43 0 .78.35.78.78v2.33c0 .44-.35.79-.78.79h-6.69a.78.78 0 0 1-.78-.79v-4.68h-.26a.78.78 0 0 1-.78-.79v-6.55h-2.34a.78.78 0 0 1-.78-.78v-34.86c0-.43.35-.78.78-.78h40.04c.43 0 .78.35.78.78zm-34.57 23.59h12.99v-12.06h-12.47a2.88 2.88 0 0 0-2.87 2.88v27h32.23v-27a2.88 2.88 0 0 0-2.86-2.88h-12.47v12.06h12.99a.78.78 0 0 1 0 1.57h-27.54a.78.78 0 0 1-.78-.79c0-.43.35-.78.78-.78zm33 10.48v-33.28h-38.47v33.28h1.56v-19.66a4.44 4.44 0 0 1 4.43-4.45h26.5c2.44 0 4.42 2 4.42 4.45v19.66zm4.7-14.49v4.8c0 .43-.36.78-.79.78a.78.78 0 0 1-.78-.79v-4.79c0-.43.35-.79.78-.79.43 0 .78.36.78.79zm-46.3 0v4.8c0 .43-.34.78-.78.78a.78.78 0 0 1-.78-.79v-4.79c0-.43.35-.79.78-.79.44 0 .79.36.79.79z"/></defs><g><g transform="translate(-1297 -2854)"><use xlink:href="#s3k2a"/></g></g></svg>